<svg width="36" height="36" viewBox="0 0 36 36" fill="none" xmlns="http://www.w3.org/2000/svg">
<rect x="0.5" y="0.5" width="35" height="35" rx="9.5" fill="white" stroke="#ECEEF5"/>
<path d="M21.7617 18C21.7617 18.2109 21.6797 18.3867 21.5156 18.5273C21.375 18.668 21.1992 18.7383 20.9883 18.7383H13.5L10.5117 21.7617V11.25C10.5117 11.0391 10.582 10.8633 10.7227 10.7227C10.8633 10.582 11.0391 10.5117 11.25 10.5117H20.9883C21.1992 10.5117 21.375 10.582 21.5156 10.7227C21.6797 10.8633 21.7617 11.0391 21.7617 11.25V18ZM24.75 13.5C24.9609 13.5 25.1367 13.5703 25.2773 13.7109C25.418 13.8516 25.4883 14.0273 25.4883 14.2383V25.4883L22.5 22.5H14.2383C14.0273 22.5 13.8516 22.4297 13.7109 22.2891C13.5703 22.1484 13.5 21.9727 13.5 21.7617V20.25H23.2383V13.5H24.75Z" fill="#8083A3"/>
</svg>
